<?xml version="1.0" encoding="UTF-8" ?>
<!DOCTYPE svg PUBLIC "-//W3C//DTD SVG 1.1//EN" "http://www.w3.org/Graphics/SVG/1.1/DTD/svg11.dtd">
<svg width="671pt" height="670pt" viewBox="0 0 671 670" version="1.1" xmlns="http://www.w3.org/2000/svg">
<path fill="#ffffff" d=" M 0.00 0.00 L 325.67 0.00 C 282.56 1.41 239.68 10.81 200.20 28.27 C 160.75 45.66 124.66 70.69 94.68 101.69 C 54.72 142.58 25.59 193.95 11.03 249.24 C 4.40 274.14 0.91 299.83 0.00 325.57 L 0.00 0.00 Z" />
<path fill="#13235b" d=" M 325.67 0.00 L 345.10 0.00 C 407.22 1.80 468.80 20.96 520.55 55.45 C 579.61 94.31 625.87 152.32 650.29 218.69 C 663.00 252.67 669.70 288.76 671.00 324.98 L 671.00 345.00 C 669.57 386.56 660.80 427.92 644.39 466.17 C 618.57 527.01 574.18 579.74 518.76 615.73 C 467.46 649.45 406.67 668.17 345.35 670.00 L 325.76 670.00 C 281.91 668.60 238.27 658.90 198.24 640.85 C 137.09 613.59 84.59 567.45 49.52 510.44 C 18.82 460.92 1.82 403.23 0.00 345.03 L 0.00 325.57 C 0.91 299.83 4.40 274.14 11.03 249.24 C 25.59 193.95 54.72 142.58 94.68 101.69 C 124.66 70.69 160.75 45.66 200.20 28.27 C 239.68 10.81 282.56 1.41 325.67 0.00 Z" />
<path fill="#ffffff" d=" M 345.10 0.00 L 671.00 0.00 L 671.00 324.98 C 669.70 288.76 663.00 252.67 650.29 218.69 C 625.87 152.32 579.61 94.31 520.55 55.45 C 468.80 20.96 407.22 1.80 345.10 0.00 Z" />
<path fill="#ffffff" d=" M 308.57 5.79 C 368.71 0.88 430.21 12.58 484.07 39.90 C 553.27 74.43 609.48 134.15 639.76 205.32 C 675.08 286.94 675.09 382.98 639.80 464.61 C 611.17 531.94 559.36 589.02 495.25 624.25 C 459.58 643.95 420.24 656.96 379.85 662.34 C 331.77 668.80 282.28 664.66 236.00 650.07 C 164.83 627.81 101.86 580.56 60.50 518.51 C 24.56 465.26 4.91 401.22 4.74 336.98 C 4.49 302.72 9.62 268.42 19.94 235.76 C 35.71 185.53 63.88 139.33 101.04 102.07 C 132.34 70.65 169.99 45.56 211.11 28.91 C 242.15 16.26 275.17 8.51 308.57 5.79 Z" />
<path fill="#13235b" d=" M 339.80 44.95 C 340.04 40.37 347.69 40.40 347.87 45.02 C 348.80 65.98 349.67 86.95 350.30 107.92 C 350.36 112.30 343.22 112.87 342.26 108.80 C 341.52 99.88 341.60 90.89 341.02 81.95 C 329.67 82.37 318.31 82.77 306.96 83.30 C 307.09 92.17 307.79 101.04 307.85 109.91 C 307.30 114.46 299.69 114.25 299.63 109.58 C 298.80 89.75 298.10 69.90 297.25 50.07 C 297.26 47.97 296.74 45.21 298.93 43.94 C 301.37 42.00 305.59 43.89 305.44 47.11 C 305.88 56.41 306.24 65.72 306.54 75.02 C 317.95 74.49 329.37 73.99 340.79 73.72 C 340.44 64.13 339.77 54.54 339.80 44.95 Z" />
<path fill="#13235b" d=" M 372.35 45.18 C 374.36 44.01 376.92 45.23 378.04 47.08 C 378.51 49.02 378.11 51.02 377.89 52.96 C 375.13 72.32 372.65 91.71 369.83 111.05 C 369.42 114.97 363.31 115.48 361.88 111.96 C 361.46 108.99 362.21 106.03 362.56 103.09 C 364.98 85.41 367.46 67.73 369.83 50.03 C 370.07 48.20 370.34 45.92 372.35 45.18 Z" />
<path fill="#13235b" d=" M 401.50 54.00 C 400.90 50.72 405.05 48.17 407.75 50.04 C 409.55 50.96 409.65 53.18 409.80 54.94 C 411.07 73.77 412.38 92.60 413.71 111.44 C 426.73 97.19 439.73 82.93 452.80 68.72 C 454.45 66.31 458.57 66.53 459.78 69.23 C 460.84 71.04 460.09 73.22 458.70 74.60 C 443.66 90.95 428.74 107.41 413.71 123.76 C 411.78 126.67 406.44 125.71 406.20 122.08 C 404.54 99.40 402.98 76.70 401.50 54.00 Z" />
<path fill="#13235b" d=" M 246.54 52.80 C 256.04 50.11 266.68 53.67 272.98 61.17 C 274.91 63.63 273.50 68.27 269.95 68.04 C 267.95 68.44 266.78 66.63 265.48 65.49 C 261.27 61.14 254.63 59.06 248.77 60.87 C 239.64 63.21 233.68 73.83 237.12 82.77 C 239.58 90.46 241.90 98.20 244.42 105.87 C 247.24 114.76 258.27 119.61 266.79 115.97 C 273.02 113.77 277.10 107.56 277.60 101.11 C 277.69 96.45 285.37 96.70 285.72 101.15 C 285.74 112.75 276.38 123.35 264.95 125.14 C 253.15 127.45 240.19 120.12 236.48 108.60 C 233.80 100.06 231.01 91.55 228.51 82.96 C 225.26 70.21 233.69 55.88 246.54 52.80 Z" />
<path fill="#13235b" d=" M 483.33 86.36 C 484.55 84.02 487.83 83.50 489.82 85.15 C 501.16 93.18 512.51 101.20 523.86 109.23 C 525.63 110.30 526.63 112.72 525.60 114.63 C 524.57 117.18 521.04 117.78 519.01 116.09 C 508.69 108.81 498.39 101.48 488.07 94.20 C 483.53 100.60 478.99 106.99 474.46 113.39 C 478.02 116.22 482.06 118.45 485.45 121.49 C 487.91 124.42 484.70 129.09 481.07 128.05 C 476.93 125.98 473.43 122.80 469.56 120.28 C 465.41 126.12 461.30 131.98 457.12 137.80 C 467.28 144.94 477.39 152.15 487.55 159.29 C 490.71 160.64 491.19 165.56 487.91 167.04 C 485.91 168.32 483.75 166.96 482.12 165.77 C 471.24 158.02 460.30 150.35 449.43 142.61 C 447.10 141.39 446.46 138.15 448.05 136.10 C 459.79 119.51 471.59 102.95 483.33 86.36 Z" />
<path fill="#13235b" d=" M 176.41 87.43 C 188.04 80.90 204.36 85.62 210.50 97.53 C 214.76 105.14 214.11 114.72 209.95 122.22 C 216.75 124.39 223.68 126.16 230.42 128.50 C 234.49 129.88 233.32 136.76 228.94 136.53 C 220.51 134.90 212.53 131.24 204.07 129.78 C 197.98 132.21 192.86 136.63 187.18 139.88 C 190.12 144.67 193.41 149.26 196.15 154.17 C 197.89 158.46 191.45 161.97 188.93 158.11 C 177.78 140.94 166.88 123.61 155.81 106.40 C 154.17 104.43 154.43 101.15 156.76 99.86 C 163.30 95.70 169.76 91.41 176.41 87.43 Z" />
<path fill="#ffffff" d=" M 180.55 94.74 C 188.36 90.26 199.33 93.68 203.22 101.78 C 207.14 109.08 204.38 119.00 197.41 123.39 C 192.50 126.54 187.60 129.70 182.66 132.80 C 176.66 123.45 170.70 114.08 164.71 104.72 C 170.02 101.43 175.17 97.90 180.55 94.74 Z" />
<path fill="#13235b" d=" M 538.49 134.70 C 545.09 132.57 552.18 135.35 557.21 139.71 C 564.70 145.91 569.59 156.60 566.27 166.19 C 565.51 169.19 561.09 170.22 559.15 167.84 C 557.02 165.66 558.74 162.51 558.67 159.89 C 559.29 153.85 555.11 148.75 550.64 145.25 C 546.88 142.04 540.78 141.28 537.18 145.15 C 532.09 149.36 532.88 157.26 536.81 161.99 C 541.33 167.30 545.12 173.78 545.04 180.96 C 545.63 190.55 538.65 199.69 529.57 202.36 C 523.82 203.97 517.53 202.62 512.59 199.41 C 506.33 195.39 500.99 189.48 498.79 182.28 C 496.88 175.81 497.22 168.49 500.67 162.60 C 502.12 160.00 506.37 159.54 507.92 162.29 C 509.39 165.07 507.28 167.79 506.57 170.44 C 504.79 176.45 507.10 183.05 511.35 187.47 C 514.67 191.05 518.97 194.33 524.04 194.53 C 529.65 194.84 534.73 190.37 536.11 185.11 C 537.86 179.22 535.15 173.03 531.28 168.61 C 526.97 163.50 524.13 156.68 525.35 149.92 C 526.47 142.91 531.89 137.04 538.49 134.70 Z" />
<path fill="#13235b" d=" M 109.74 147.51 C 107.77 144.36 111.77 140.31 114.98 141.84 C 135.64 148.49 156.25 155.31 176.91 161.98 C 178.97 162.72 181.85 163.38 182.19 166.00 C 183.02 168.77 180.03 171.71 177.29 170.74 C 171.04 169.01 164.96 166.67 158.74 164.81 C 151.99 172.59 145.13 180.27 138.38 188.05 C 141.07 193.93 144.10 199.64 146.69 205.57 C 147.84 207.98 145.71 211.29 143.00 211.04 C 140.76 211.37 139.33 209.36 138.52 207.59 C 128.95 187.55 119.27 167.56 109.74 147.51 Z" />
<path fill="#ffffff" d=" M 121.46 152.64 C 130.98 155.79 140.52 158.90 150.06 161.99 C 144.84 167.93 139.60 173.85 134.44 179.83 C 130.02 170.81 125.70 161.74 121.46 152.64 Z" />
<path fill="#14235c" d=" M 242.85 180.91 C 273.76 162.64 310.19 153.96 346.01 156.10 C 375.06 157.68 403.68 166.35 428.69 181.20 C 465.79 203.04 494.77 238.38 508.60 279.17 C 519.89 311.82 521.51 347.70 513.40 381.26 C 500.60 381.23 487.80 381.27 475.00 381.25 C 475.01 344.81 474.99 308.38 475.01 271.94 C 475.37 261.74 464.58 253.61 454.84 255.28 C 446.97 256.14 439.67 262.80 439.52 270.97 C 439.47 312.98 439.52 355.00 439.49 397.01 C 439.25 406.03 446.95 414.54 456.06 414.72 C 471.33 414.80 486.59 414.70 501.86 414.76 C 487.97 444.76 465.94 470.95 438.56 489.52 C 406.12 511.79 366.32 523.00 327.03 521.03 C 288.60 519.44 250.85 505.17 220.94 481.00 C 198.82 463.37 181.11 440.42 169.14 414.82 C 173.69 415.22 178.60 415.26 182.58 412.68 C 187.77 409.81 191.29 404.03 191.01 398.06 C 190.99 384.45 191.00 370.85 191.00 357.24 C 210.25 357.25 229.50 357.24 248.75 357.25 C 248.77 370.83 248.74 384.42 248.75 398.00 C 248.39 408.23 259.10 417.12 269.08 414.67 C 276.68 412.96 283.81 406.16 283.52 397.98 C 283.47 355.64 283.53 313.30 283.49 270.96 C 283.24 262.77 275.54 256.58 267.86 255.50 C 258.38 254.08 248.76 262.46 248.77 272.03 C 248.72 289.10 248.77 306.17 248.76 323.24 C 229.50 323.26 210.25 323.25 190.99 323.25 C 190.97 305.79 191.07 288.33 190.95 270.88 C 190.49 261.68 181.45 254.90 172.57 255.19 C 188.44 224.50 213.00 198.36 242.85 180.91 Z" />
<path fill="#ffffff" d=" M 349.67 257.81 C 357.14 254.61 365.83 254.68 373.39 257.56 C 377.08 259.31 379.82 262.73 381.35 266.47 C 391.23 291.88 401.06 317.32 410.97 342.72 C 394.48 334.51 377.98 326.31 361.44 318.19 C 354.57 336.18 347.41 354.06 340.43 372.00 C 354.28 372.00 368.12 371.98 381.97 372.02 C 391.85 362.87 401.84 353.85 411.73 344.71 C 417.94 360.74 424.18 376.76 430.38 392.79 C 434.17 401.88 427.73 413.38 418.07 415.02 C 411.85 416.09 404.66 415.64 399.73 411.27 C 395.93 408.11 394.62 403.17 392.84 398.77 C 371.90 398.72 350.95 398.76 330.01 398.75 C 328.33 403.17 327.16 408.20 323.27 411.28 C 318.62 415.41 311.91 415.99 306.00 415.21 C 295.81 414.13 288.38 402.15 292.47 392.61 C 308.71 350.88 325.04 309.18 341.30 267.45 C 342.82 263.38 345.78 259.80 349.67 257.81 Z" />
<path fill="#14235c" d=" M 340.43 372.00 C 347.41 354.06 354.57 336.18 361.44 318.19 C 368.03 336.23 375.15 354.06 381.97 372.02 C 368.12 371.98 354.28 372.00 340.43 372.00 Z" />
<path fill="#e8501f" d=" M 361.44 318.19 C 377.98 326.31 394.48 334.51 410.97 342.72 C 411.44 342.96 412.38 343.43 412.86 343.66 L 411.73 344.71 C 401.84 353.85 391.85 362.87 381.97 372.02 C 375.15 354.06 368.03 336.23 361.44 318.19 Z" />
<path fill="#14235c" d=" M 76.36 320.57 C 81.66 318.91 87.72 319.66 92.40 322.67 C 97.90 326.09 101.48 332.49 101.29 339.00 C 101.48 346.31 96.90 353.43 90.23 356.39 C 83.12 359.80 73.97 358.24 68.44 352.60 C 62.33 346.69 61.02 336.58 65.37 329.29 C 67.79 325.15 71.76 321.95 76.36 320.57 Z" />
<path fill="#14235c" d=" M 584.37 320.60 C 590.83 318.56 598.34 320.07 603.32 324.73 C 609.22 329.97 611.15 339.00 608.10 346.25 C 605.05 354.07 596.40 359.19 588.07 358.06 C 579.39 357.29 571.95 349.83 571.10 341.18 C 569.92 332.31 575.76 323.13 584.37 320.60 Z" />
<path fill="#ffffff" d=" M 0.00 345.03 C 1.82 403.23 18.82 460.92 49.52 510.44 C 84.59 567.45 137.09 613.59 198.24 640.85 C 238.27 658.90 281.91 668.60 325.76 670.00 L 0.00 670.00 L 0.00 345.03 Z" />
<path fill="#ffffff" d=" M 644.39 466.17 C 660.80 427.92 669.57 386.56 671.00 345.00 L 671.00 670.00 L 345.35 670.00 C 406.67 668.17 467.46 649.45 518.76 615.73 C 574.18 579.74 618.57 527.01 644.39 466.17 Z" />
<path fill="#13235b" d=" M 522.57 471.72 C 525.81 470.67 529.41 470.35 532.67 471.49 C 535.71 472.61 535.92 477.59 532.95 478.95 C 529.13 479.88 524.89 479.17 521.42 481.33 C 516.89 484.04 513.55 488.78 512.28 493.88 C 510.30 500.62 517.71 506.84 524.11 505.62 C 528.18 504.92 531.57 502.21 534.11 499.06 C 539.09 492.85 546.79 488.40 554.92 488.73 C 561.95 488.86 568.58 492.86 572.54 498.58 C 576.40 504.43 576.33 512.22 573.50 518.48 C 570.25 525.90 564.62 532.69 556.86 535.59 C 551.07 537.78 544.14 538.43 538.54 535.43 C 534.63 533.02 537.80 526.82 542.07 528.20 C 548.00 529.95 554.80 528.73 559.31 524.35 C 563.95 519.90 567.92 513.57 566.85 506.88 C 565.45 499.50 556.64 495.37 549.82 497.91 C 541.58 500.23 538.47 509.59 530.54 512.48 C 519.40 518.07 503.87 509.64 503.50 496.95 C 503.68 485.68 511.94 475.19 522.57 471.72 Z" />
<path fill="#13235b" d=" M 134.41 477.61 C 141.51 475.99 149.36 477.24 155.26 481.64 C 161.80 486.18 165.87 494.04 165.78 502.01 C 165.92 509.25 162.84 516.55 157.31 521.27 C 151.25 526.54 145.15 531.77 139.05 537.00 C 132.95 542.45 124.07 544.46 116.18 542.49 C 105.93 540.16 97.80 530.68 97.04 520.20 C 96.29 512.21 99.41 503.85 105.60 498.66 C 111.75 493.43 117.82 488.09 123.99 482.88 C 126.98 480.32 130.55 478.43 134.41 477.61 Z" />
<path fill="#ffffff" d=" M 136.41 485.63 C 144.80 483.51 154.25 488.83 156.66 497.16 C 158.85 503.58 156.58 511.13 151.33 515.38 C 145.05 520.74 138.83 526.18 132.50 531.48 C 126.84 536.09 118.24 536.00 112.42 531.72 C 106.19 527.37 103.49 518.55 106.47 511.51 C 107.55 508.55 109.71 506.16 112.08 504.16 C 117.68 499.38 123.24 494.57 128.82 489.78 C 131.01 487.87 133.54 486.26 136.41 485.63 Z" />
<path fill="#13235b" d=" M 491.48 505.28 C 494.12 503.00 498.57 505.67 498.01 509.04 C 498.02 510.91 496.28 512.01 495.03 513.11 C 485.39 520.53 475.81 528.04 466.15 535.44 C 470.98 541.66 475.86 547.84 480.63 554.11 C 484.20 551.46 487.53 548.46 491.25 546.02 C 494.80 544.30 498.47 548.35 496.72 551.78 C 493.53 555.24 489.41 557.69 485.80 560.70 C 490.16 566.37 494.58 572.00 498.97 577.65 C 508.68 570.16 518.36 562.63 528.04 555.10 C 529.41 554.05 531.04 552.83 532.87 553.46 C 536.30 554.15 537.15 559.24 534.11 561.03 C 523.24 569.53 512.30 577.93 501.42 586.41 C 499.61 588.14 496.40 588.26 494.92 586.05 C 482.59 570.41 470.47 554.60 458.18 538.93 C 456.35 537.05 454.92 533.60 457.47 531.68 C 468.72 522.77 480.09 514.00 491.48 505.28 Z" />
<path fill="#13235b" d=" M 179.37 514.33 C 182.58 511.82 187.73 515.95 185.55 519.58 C 178.67 529.96 171.38 540.09 164.31 550.36 C 162.04 553.80 159.11 557.01 158.20 561.15 C 156.12 569.25 161.14 578.39 169.02 581.12 C 175.79 583.73 184.10 581.36 188.36 575.46 C 196.65 563.67 204.77 551.77 213.05 539.98 C 214.25 537.78 217.47 536.91 219.38 538.72 C 221.26 540.21 221.37 543.07 219.84 544.86 C 212.90 554.93 205.90 564.97 198.92 575.02 C 196.76 578.09 194.78 581.36 191.97 583.91 C 185.07 590.15 174.67 592.26 165.94 588.92 C 156.54 585.50 149.67 576.12 149.48 566.08 C 149.16 560.18 151.03 554.25 154.63 549.57 C 162.96 537.89 170.76 525.79 179.37 514.33 Z" />
<path fill="#13235b" d=" M 442.49 540.27 C 444.33 539.51 446.52 538.26 448.47 539.45 C 451.13 540.75 451.35 545.28 448.66 546.64 C 443.35 549.24 437.84 551.40 432.47 553.85 C 440.17 571.43 448.02 588.94 455.65 606.55 C 457.25 609.51 454.22 613.32 451.01 612.38 C 449.34 612.14 448.32 610.76 447.75 609.30 C 440.09 591.95 432.45 574.60 424.79 557.25 C 419.14 559.57 413.68 562.39 407.94 564.45 C 403.59 565.17 401.58 558.37 405.56 556.62 C 417.80 551.01 430.22 545.81 442.49 540.27 Z" />
<path fill="#13235b" d=" M 227.48 546.60 C 229.69 544.13 234.34 545.79 234.39 549.15 C 235.86 568.54 237.04 587.97 238.56 607.37 C 251.74 592.94 264.87 578.46 278.13 564.10 C 281.32 560.54 287.29 565.61 284.34 569.39 C 269.79 585.77 254.77 601.77 240.10 618.07 C 238.71 619.57 237.33 621.42 235.11 621.59 C 232.74 621.41 230.68 619.46 230.90 617.00 C 229.33 595.32 227.91 573.63 226.33 551.95 C 226.31 550.15 225.84 547.87 227.48 546.60 Z" />
<path fill="#13235b" d=" M 355.13 567.19 C 362.73 565.69 370.35 564.17 378.00 562.90 C 390.87 561.09 404.12 570.88 405.78 583.84 C 407.37 592.77 403.37 602.08 396.23 607.54 C 401.50 611.73 406.76 615.91 412.05 620.07 C 413.52 621.14 414.75 623.05 414.13 624.93 C 413.63 627.79 409.86 629.20 407.60 627.36 C 401.71 623.00 396.11 618.23 390.26 613.80 C 388.80 612.65 386.95 611.89 385.09 612.42 C 379.57 613.40 374.07 614.51 368.55 615.54 C 369.49 621.05 370.89 626.49 371.52 632.05 C 371.95 635.50 367.13 637.45 364.71 635.24 C 363.45 634.22 363.31 632.48 362.98 631.03 C 359.36 611.66 355.62 592.31 351.96 572.95 C 351.10 570.54 352.41 567.47 355.13 567.19 Z" />
<path fill="#13235b" d=" M 292.66 569.98 C 292.52 567.55 294.35 565.05 296.99 565.50 C 310.39 566.19 323.77 567.27 337.16 568.05 C 339.15 568.30 341.90 567.98 342.88 570.22 C 344.69 572.84 342.22 577.10 338.97 576.48 C 326.23 575.72 313.49 574.84 300.76 573.98 C 300.20 581.87 299.67 589.77 299.18 597.68 C 303.85 598.03 308.60 597.87 313.19 598.81 C 316.73 600.42 315.83 606.29 311.93 606.68 C 307.46 606.69 303.02 606.07 298.56 605.95 C 298.22 613.12 297.65 620.27 297.19 627.43 C 310.13 628.25 323.08 629.01 336.00 630.02 C 340.95 630.35 340.00 638.82 335.11 638.19 C 320.87 637.31 306.63 636.36 292.40 635.39 C 289.66 635.28 288.20 632.48 288.74 630.00 C 289.97 609.99 291.35 589.98 292.66 569.98 Z" />
<path fill="#ffffff" d=" M 360.74 574.58 C 366.78 573.48 372.79 572.17 378.85 571.18 C 387.23 569.93 395.91 576.06 397.42 584.43 C 399.30 592.84 393.31 601.85 385.03 603.85 C 379.05 605.19 373.00 606.17 366.99 607.34 C 364.92 596.41 362.87 585.49 360.74 574.58 Z" />
</svg>
